<svg width="48" height="48" viewBox="0 0 48 48" fill="none" xmlns="http://www.w3.org/2000/svg">
<g clip-path="url(#clip0_6_2)">
<path d="M24 0.0579834C10.776 0.0579834 0.0579834 10.776 0.0579834 24C0.0579834 37.222 10.776 47.942 24 47.942C37.222 47.942 47.942 37.221 47.942 24C47.942 10.776 37.222 0.0579834 24 0.0579834ZM18.109 42.539L20.046 40.441L15.766 35.101L9.36698 33.039L8.22398 35.35C5.94698 32.189 4.58498 28.329 4.55398 24.142L6.87798 25.468L11.114 20.094L11.68 13.395L8.26998 12.589C10.638 9.33098 13.982 6.83698 17.883 5.54498L17.504 8.27898L24.066 10.216L30.498 8.25498L30.093 5.53698C34.011 6.82898 37.367 9.33498 39.74 12.604L36.467 13.287L36.85 20.119L40.863 25.515L43.447 24.136C43.421 28.233 42.119 32.024 39.929 35.147L38.772 32.899L32.29 35.093L28.163 40.403L30.123 42.458C28.197 43.099 26.142 43.457 24.001 43.457C21.946 43.453 19.967 43.131 18.109 42.539Z" fill="white"/>
<path d="M31.499 21.929L24 16.483L16.548 21.929L19.319 30.384H28.633L31.499 21.929Z" fill="white"/>
</g>
<defs>
<clipPath id="clip0_6_2">
<rect width="48" height="48" fill="white"/>
</clipPath>
</defs>
</svg>
